<svg xmlns="http://www.w3.org/2000/svg" xmlns:xlink="http://www.w3.org/1999/xlink" viewBox="0 0 138 140"><defs><style>.cls-1{fill:none;}.cls-2{isolation:isolate;}.cls-3{clip-path:url(#clip-path);}.cls-4,.cls-5{fill:#ffb300;}.cls-5{opacity:0.52;mix-blend-mode:darken;}.cls-6{opacity:0.34;mix-blend-mode:lighten;}.cls-7{clip-path:url(#clip-path-2);}.cls-8{fill:#ececed;}.cls-9{fill:#ffa000;}.cls-10{clip-path:url(#clip-path-3);}</style><clipPath id="clip-path"><path class="cls-1" d="M124,73.88c0-30.2-24.49-85.29-54.69-85.29S14.62,43.68,14.62,73.88a54.69,54.69,0,0,0,109.38,0Z"/></clipPath><clipPath id="clip-path-2"><path class="cls-1" d="M30.4,115.88h9.83l62.71-.12.33-.58.23-1.23s.1-6.73.26-8.2.58-9.73.63-12.63.32-3.52.74-17.83-1.74-22.82-1.63-27.77c.11-5.33,2.63-14.28,2.63-16.41,0-.31-16.68-.37-26.49-.51s-19.57.21-21.11,0S32.37,30.11,32,30.25s-.28.7-.28,1.69.37,14,.37,14-1.71,12.54-1.78,16.61-.42,9.82-.42,16.62.42,24.69.35,26.65S30.4,115.88,30.4,115.88Z"/></clipPath><clipPath id="clip-path-3"><path class="cls-1" d="M29.7,113.34h9.41l60.09-.12.32-.56.22-1.17s.1-6.45.25-7.86.55-9.33.6-12.1.31-3.38.71-17.09-1.66-21.87-1.56-26.61c.11-5.1,2.52-13.68,2.52-15.72,0-.3-16-.35-25.39-.49s-18.75.2-20.22,0-25.07-.47-25.47-.33-.27.67-.27,1.61.35,13.38.35,13.38-1.63,12-1.69,15.92-.41,9.41-.41,15.92.41,23.66.34,25.54S29.7,113.34,29.7,113.34Z"/></clipPath></defs><g class="cls-2"><g id="Calque_1" data-name="Calque 1"><g class="cls-3"><path class="cls-4" d="M30.56,115.21h9.82l62.71-.13.33-.57.23-1.23s.1-6.73.26-8.21.58-9.73.63-12.62.32-3.52.74-17.83a175.08,175.08,0,0,0-1.63-27.77s2.63-16.1,2.63-16.41-16.67-.37-26.49-.51-19.57.21-21.11,0-26.16-.49-26.58-.35-.28.7-.28,1.68S32,45.9,32,45.9s-1.55,11.87-1.62,15.94.84,16.62.84,16.62-.84,24.69-.91,26.65S30.56,115.21,30.56,115.21Z"/><path class="cls-5" d="M31.4,114.16l9-.42,57.55-1,5.16,2.38-.93-1.63-.61-2.27s.94-4.63,1.1-6.11.21-12.62.21-12.62L104,74.62l-3-27.86s2.84-13.43,2.84-13.74-25.44-1.58-25.44-1.58l-19.79,0L36.35,32.79l-2.85-.9L34.06,45,32,58.39l.51,20.07-1.75,26.65Z"/><g class="cls-6"><g class="cls-7"><polygon class="cls-8" points="24.71 119.42 13.82 118.29 37.38 11.76 48.26 12.89 24.71 119.42"/><polygon class="cls-8" points="46.37 124.21 35.49 123.08 59.04 16.55 69.92 17.68 46.37 124.21"/><polygon class="cls-8" points="68.03 129 57.15 127.87 80.7 21.34 91.58 22.47 68.03 129"/><polygon class="cls-8" points="89.7 133.79 78.82 132.66 102.37 26.13 113.25 27.26 89.7 133.79"/><rect class="cls-8" x="101.36" y="27.8" width="5.24" height="109.1" transform="translate(20.23 -20.5) rotate(12.47)"/></g></g><path class="cls-9" d="M30.56,115.21h9.82l62.71-.13.33-.57.23-1.23s.1-6.73.26-8.21.58-9.73.63-12.62.32-3.52.74-17.83a175.08,175.08,0,0,0-1.63-27.77s2.63-16.1,2.63-16.41-16.67-.37-26.49-.51-19.57.21-21.11,0-26.16-.49-26.58-.35-.28.7-.28,1.68S32,45.9,32,45.9s-1.55,11.87-1.62,15.94.84,16.62.84,16.62-.84,24.69-.91,26.65S30.56,115.21,30.56,115.21Z"/><path class="cls-4" d="M49.91,29.7s0-7.68,0-9.52a21.38,21.38,0,0,0,0-2.26l.42-.58,4.79-4.57.74-.27s3,.11,6.83,0,8.52.42,11.68.27a32.29,32.29,0,0,1,6.31.1c.32.16,5.58,5.1,5.63,5.26l0,.16s.06.1,0,.63-.21,11.25-.21,11.25H80.42L80.58,18l-25.41-.16,0,11.94Z"/><path class="cls-9" d="M49.91,29.7s0-7.68,0-9.52a21.38,21.38,0,0,0,0-2.26l.42-.58,4.79-4.57.74-.27s3,.11,6.83,0,8.52.42,11.68.27a32.29,32.29,0,0,1,6.31.1c.32.16,5.58,5.1,5.63,5.26l0,.16s.06.1,0,.63-.21,11.25-.21,11.25H80.42L80.58,18l-25.41-.16,0,11.94Z"/></g><path class="cls-1" d="M29.85,112.69h9.41l60.08-.12.32-.55.22-1.18s.1-6.45.25-7.86.56-9.32.61-12.1.3-3.37.7-17.08a166.89,166.89,0,0,0-1.56-26.61s2.52-15.42,2.52-15.73S86.43,31.11,77,31s-18.75.2-20.23,0-25.06-.47-25.47-.34-.27.67-.27,1.61.21,14,.21,14-1.48,11.38-1.55,15.27.81,15.93.81,15.93-.81,23.65-.88,25.53S29.85,112.69,29.85,112.69Z"/><g class="cls-6"><g class="cls-10"><polygon class="cls-8" points="24.24 116.73 13.81 115.64 36.38 13.57 46.81 14.65 24.24 116.73"/><polygon class="cls-8" points="45 121.32 34.57 120.23 57.14 18.16 67.56 19.24 45 121.32"/><polygon class="cls-8" points="65.76 125.91 55.33 124.82 77.9 22.75 88.32 23.83 65.76 125.91"/><polygon class="cls-8" points="86.52 130.49 76.09 129.41 98.65 27.34 109.08 28.42 86.52 130.49"/><rect class="cls-8" x="97.69" y="28.94" width="5.02" height="104.54" transform="translate(19.89 -19.71) rotate(12.47)"/></g></g><path class="cls-4" d="M48.39,30.76s0-7.36,0-9.12a19.66,19.66,0,0,0,0-2.17l.41-.55,4.58-4.39.71-.25s2.87.1,6.55,0,8.16.4,11.19.25a31.5,31.5,0,0,1,6,.1c.3.15,5.34,4.89,5.39,5l0,.15a1.53,1.53,0,0,1,0,.61c0,.5-.2,10.78-.2,10.78h-5.5l.15-11.69-24.34-.15,0,11.44Z"/><g class="cls-3"><path class="cls-4" d="M30.56,115.21h9.82l62.71-.13.33-.57.23-1.23s.1-6.73.26-8.21.58-9.73.63-12.62.32-3.52.74-17.83a175.08,175.08,0,0,0-1.63-27.77s2.63-16.1,2.63-16.41-16.67-.37-26.49-.51-19.57.21-21.11,0-26.16-.49-26.58-.35-.28.7-.28,1.68S32,45.9,32,45.9s-1.55,11.87-1.62,15.94.84,16.62.84,16.62-.84,24.69-.91,26.65S30.56,115.21,30.56,115.21Z"/><path class="cls-5" d="M31.4,114.16l9-.42,57.55-1,5.16,2.38-.93-1.63-.61-2.27s.94-4.63,1.1-6.11.21-12.62.21-12.62L104,74.62l-3-27.86s2.84-13.43,2.84-13.74-25.44-1.58-25.44-1.58l-19.79,0L36.35,32.79l-2.85-.9L34.06,45,32,58.39l.51,20.07-1.75,26.65Z"/><g class="cls-6"><g class="cls-7"><polygon class="cls-8" points="24.71 119.42 13.82 118.29 37.38 11.76 48.26 12.89 24.71 119.42"/><polygon class="cls-8" points="46.37 124.21 35.49 123.08 59.04 16.55 69.92 17.68 46.37 124.21"/><polygon class="cls-8" points="68.03 129 57.15 127.87 80.7 21.34 91.58 22.47 68.03 129"/><polygon class="cls-8" points="89.7 133.79 78.82 132.66 102.37 26.13 113.25 27.26 89.7 133.79"/><rect class="cls-8" x="101.36" y="27.8" width="5.24" height="109.1" transform="translate(20.23 -20.5) rotate(12.47)"/></g></g><path class="cls-9" d="M30.56,115.21h9.82l62.71-.13.33-.57.23-1.23s.1-6.73.26-8.21.58-9.73.63-12.62.32-3.52.74-17.83a175.08,175.08,0,0,0-1.63-27.77s2.63-16.1,2.63-16.41-16.67-.37-26.49-.51-19.57.21-21.11,0-26.16-.49-26.58-.35-.28.7-.28,1.68S32,45.9,32,45.9s-1.55,11.87-1.62,15.94.84,16.62.84,16.62-.84,24.69-.91,26.65S30.56,115.21,30.56,115.21Z"/><path class="cls-4" d="M49.91,29.7s0-7.68,0-9.52a21.38,21.38,0,0,0,0-2.26l.42-.58,4.79-4.57.74-.27s3,.11,6.83,0,8.52.42,11.68.27a32.29,32.29,0,0,1,6.31.1c.32.16,5.58,5.1,5.63,5.26l0,.16s.06.1,0,.63-.21,11.25-.21,11.25H80.42L80.58,18l-25.41-.16,0,11.94Z"/><path class="cls-9" d="M49.91,29.7s0-7.68,0-9.52a21.38,21.38,0,0,0,0-2.26l.42-.58,4.79-4.57.74-.27s3,.11,6.83,0,8.52.42,11.68.27a32.29,32.29,0,0,1,6.31.1c.32.16,5.58,5.1,5.63,5.26l0,.16s.06.1,0,.63-.21,11.25-.21,11.25H80.42L80.58,18l-25.41-.16,0,11.94Z"/></g><path class="cls-1" d="M29.85,112.69h9.41l60.08-.12.32-.55.22-1.18s.1-6.45.25-7.86.56-9.32.61-12.1.3-3.37.7-17.08a166.89,166.89,0,0,0-1.56-26.61s2.52-15.42,2.52-15.73S86.43,31.11,77,31s-18.75.2-20.23,0-25.06-.47-25.47-.34-.27.67-.27,1.61.21,14,.21,14-1.48,11.38-1.55,15.27.81,15.93.81,15.93-.81,23.65-.88,25.53S29.85,112.69,29.85,112.69Z"/><g class="cls-6"><g class="cls-10"><polygon class="cls-8" points="24.24 116.73 13.81 115.64 36.38 13.57 46.81 14.65 24.24 116.73"/><polygon class="cls-8" points="45 121.32 34.57 120.23 57.14 18.16 67.56 19.24 45 121.32"/><polygon class="cls-8" points="65.76 125.91 55.33 124.82 77.9 22.75 88.32 23.83 65.76 125.91"/><polygon class="cls-8" points="86.52 130.49 76.09 129.41 98.65 27.34 109.08 28.42 86.52 130.49"/><rect class="cls-8" x="97.69" y="28.94" width="5.02" height="104.54" transform="translate(19.89 -19.71) rotate(12.47)"/></g></g><path class="cls-4" d="M48.39,30.76s0-7.36,0-9.12a19.66,19.66,0,0,0,0-2.17l.41-.55,4.58-4.39.71-.25s2.87.1,6.55,0,8.16.4,11.19.25a31.5,31.5,0,0,1,6,.1c.3.15,5.34,4.89,5.39,5l0,.15a1.53,1.53,0,0,1,0,.61c0,.5-.2,10.78-.2,10.78h-5.5l.15-11.69-24.34-.15,0,11.44Z"/></g></g></svg>