<svg xmlns="http://www.w3.org/2000/svg" viewBox="0 0 182.22 231.55"><defs><style>.cls-1{fill:#fff;}</style></defs><g id="Calque_2" data-name="Calque 2"><g id="Calque_1-2" data-name="Calque 1"><path class="cls-1" d="M144.49,42.8a41.74,41.74,0,0,0,3.81-4.54c1.23-1.72-.54-4.37-2.53-4.21-11.84,1-23.18-1.34-34.91-2.33-10.15-.85-19.49,1.14-29.13,3.79a105.16,105.16,0,0,0-13-30.59C63.44-3.26,59.52.36,51.56,4.34a2.87,2.87,0,0,0-.92,3.91A107.25,107.25,0,0,1,63.57,39.41a96,96,0,0,0-24,11.49C30.3,57.25,23.39,67,12.55,70.76a2.87,2.87,0,0,0-1.15,4.78,19.59,19.59,0,0,0,4.08,3.12C-32.63,128.43,43,197.28,84.81,220.48c18.48,10.24,38.61,17.56,56.3,2.44,23.58-20.17,35.25-55.29,39.28-85C185,104.21,183.68,53,144.49,42.8ZM37.22,124.26c-3.06,1.44-5.88-1.1-6.51-4-.71-3.27-.29-7-.3-10.37a2.16,2.16,0,0,1,1.31-2.5,2.84,2.84,0,0,1,4.19,1.38s.05.06.07.1C37.64,112.71,43.47,121.34,37.22,124.26Zm19.69,36.63c-3,1.47-5.92-.91-6.69-3.76-.9-3.34-.85-7.12-1.18-10.56a2.34,2.34,0,0,1,2.08-2.68A2.4,2.4,0,0,1,54.29,145c1.54,2.85,3.84,5.44,4.71,8.62C59.69,156.17,59.56,159.58,56.91,160.89Zm4.71-73.52c-2.51-8.1-5.95-16.81-2-25.05C60.88,59.53,57.25,56.46,55,59c-7.39,8.4-24.23,21.14-36,15.09C24,71.48,27.89,68,32.42,64A96.56,96.56,0,0,1,67.77,44a2.61,2.61,0,0,0,1.87-2.13,1.86,1.86,0,0,0,.07-.34v-.11a2.71,2.71,0,0,0,0-1A111.7,111.7,0,0,0,57,8l2.86-1.43q3-2.8,4,1.39c2.21,1.93,3.76,6.38,5.06,9A106.14,106.14,0,0,1,77,39.77a2.38,2.38,0,0,0,1.83,1.88,2.69,2.69,0,0,0,1.7.09c13.37-3.8,24.19-5.06,37.8-3.42A173.26,173.26,0,0,0,139.48,40c-10.63,10.32-26.39,11.22-40.8,8.88A2.87,2.87,0,0,0,96,53.67c5.92,6.85,7.41,14.07,8,22.34C95.55,74,88,70.87,84.27,61.83c-1-2.31-5-3-5.48.11C77,73.24,70.27,80.92,61.62,87.37Zm14.11,35.38c-3,1.45-5.9-1-6.62-3.84-.85-3.36-.66-7.15-.89-10.59a2.43,2.43,0,0,1,2.07-2.67,2.32,2.32,0,0,1,3.19,1.14c1.45,2.9,3.66,5.56,4.46,8.75C78.58,118.08,78.39,121.45,75.73,122.75ZM86.57,187.2c-3,1.47-5.91-.9-6.68-3.76-.91-3.34-.85-7.12-1.19-10.56a2.34,2.34,0,0,1,2.08-2.67A2.4,2.4,0,0,1,84,171.35c1.54,2.85,3.83,5.44,4.71,8.62C89.35,182.48,89.23,185.89,86.57,187.2Zm19.58-36.11c-3,1.47-5.91-.91-6.69-3.77-.9-3.34-.85-7.12-1.18-10.55a2.34,2.34,0,0,1,2.08-2.68,2.39,2.39,0,0,1,3.17,1.14c1.54,2.86,3.84,5.45,4.71,8.62C108.93,146.36,108.8,149.77,106.15,151.09Zm5.3-49.84c-1.15-3.08-1.28-6.79-1.81-10,0,0,0-.07,0-.11a2.84,2.84,0,0,1,2.76-3.43,2.18,2.18,0,0,1,2.47,1.39c1.67,2.62,3.89,4.92,5,7.86.92,2.46,1.07,5.87-1.46,7.45C115.59,106.14,112.47,104,111.45,101.25Zm9.91,108.55c-3,1.47-5.91-.9-6.68-3.76-.91-3.34-.85-7.12-1.19-10.55a2.34,2.34,0,0,1,2.08-2.68,2.41,2.41,0,0,1,3.18,1.14c1.54,2.85,3.83,5.44,4.71,8.62C124.14,205.08,124,208.49,121.36,209.8Zm20.78-36.18c-3,1.47-5.92-.91-6.69-3.76-.91-3.35-.85-7.12-1.19-10.56a2.35,2.35,0,0,1,2.09-2.68,2.41,2.41,0,0,1,3.17,1.14c1.54,2.86,3.83,5.45,4.71,8.63C144.92,168.89,144.79,172.31,142.14,173.62Zm5.37-39.21c-3,1.47-5.91-.9-6.69-3.76-.9-3.34-.84-7.12-1.18-10.56a2.33,2.33,0,0,1,2.08-2.67,2.4,2.4,0,0,1,3.18,1.14c1.54,2.85,3.83,5.44,4.7,8.62C150.29,129.69,150.17,133.1,147.51,134.41Zm2.8-45.73c-3,1.47-5.91-.9-6.69-3.76-.9-3.34-.85-7.12-1.18-10.56a2.33,2.33,0,0,1,2.08-2.67,2.39,2.39,0,0,1,3.17,1.14c1.54,2.85,3.84,5.44,4.71,8.62C153.09,84,153,87.37,150.31,88.68Z"/></g></g></svg>