<?xml version="1.0"?>
<svg xmlns="http://www.w3.org/2000/svg" id="Capa_1" enable-background="new 0 0 512 512" height="512px" viewBox="0 0 512 512" width="512px" class=""><g><g><path d="m487.246 359.355-50.532-8.358c-.05-.009-.098-.024-.148-.032s-.099-.009-.149-.017l-80.663-13.342c1.844-20.983.976-42.567-2.578-62.987-.946-5.441-6.135-9.092-11.565-8.137-5.441.946-9.085 6.125-8.137 11.565 3.173 18.24 4.005 37.5 2.482 56.284l-161.664-26.706c-2.618-.436-5.299.192-7.455 1.738-2.156 1.545-3.609 3.883-4.041 6.5-10.043 60.875 14.029 119.642 58.161 156.723-71.053 5.121-144.092-57.597-170.191-125.844-28.649-74.888-13.088-156.987 37.842-199.651 2.95-2.472 4.221-6.418 3.266-10.146-3.943-15.404 4.966-31.562 20.729-37.587 15.771-6.039 33.196.049 40.53 14.152 1.776 3.417 5.393 5.512 9.206 5.381 51.478-1.701 104.654 28.813 138.844 79.685 3.081 4.584 9.294 5.804 13.878 2.722 4.584-3.081 5.802-9.294 2.722-13.877-8.213-12.221-17.511-23.489-27.664-33.601 26.164-18.079 52.449-49.63 57.402-79.243.656-3.926-1.078-7.867-4.416-10.036-28.865-18.748-80.192-18.568-111.676-6.993-12.494-24.015-36.705-49.866-61.255-57.136-3.818-1.13-7.938.11-10.497 3.157-15.529 18.49-21.644 49.58-20.124 75.474-10.795-3.045-22.732-2.713-34.094 1.636-23.172 8.857-37.012 31.748-34.142 54.97-25.361 23.103-43.327 56.088-50.84 93.565-8.118 40.487-4.102 83.599 11.612 124.674 15.624 40.856 47.469 80.752 85.188 106.721 30.93 21.295 63.807 32.276 95.417 32.276 10.735 0 21.326-1.271 31.642-3.831 17.225 10.056 36.52 17.207 57.338 20.649 9.301 1.537 18.605 2.297 27.849 2.297 34.911 0 68.879-10.845 97.825-31.586 36.607-26.23 60.805-65.14 68.136-109.565.895-5.447-2.791-10.592-8.238-11.494zm-252.847-281.47c23.53-10.352 66.43-11.963 91.798.09-7.063 23.093-30.113 48.57-51.419 62.009-8.586-7.02-17.622-13.281-27.024-18.641-12.65-7.213-25.794-12.743-39.117-16.521 3.248-8.516 10.357-20.169 25.762-26.937zm-63.419-55.764c16.657 7.997 33.605 27.146 42.718 44.668-11.693 8.394-20.382 20.176-24.819 33.748-7.109-1.074-14.224-1.657-21.3-1.71-1.863-2.68-3.972-5.13-6.271-7.352-4.396-20.311-1.198-51.153 9.672-69.354zm222.623 394.015-42.258-58.987 71.588 11.841c-4.975 18.315-15.099 34.59-29.33 47.146zm-161.497-78.69 71.598 11.827-59.002 42.271c-9.442-16.472-13.79-35.148-12.596-54.098zm83.242 28.088-11.837 71.599c-18.323-4.967-34.604-15.091-47.163-29.329zm19.733 3.254 42.265 58.996c-16.475 9.445-35.149 13.796-54.103 12.607zm80.614 95.369c-32.267 23.12-71.599 32.285-110.763 25.815-77.516-12.813-131.194-83.824-123.704-160.929l31.065 5.132c-2.216 27.549 5.282 54.722 21.563 77.448 18.235 25.452 45.29 42.276 76.174 47.372 6.472 1.07 12.946 1.6 19.377 1.6 24.232-.001 47.81-7.519 67.913-21.895.032-.023.066-.042.098-.065.021-.015.039-.033.061-.048 22.68-16.275 38.496-39.56 45.265-66.319l31.051 5.136c-8.187 35.053-28.558 65.587-58.1 86.753z" data-original="#000000" class="active-path" data-old_color="#000000" fill="#FFFFFF"/><path d="m326.041 223.256c-4.94 2.47-6.942 8.476-4.473 13.416l.028.057c1.749 3.498 5.262 5.508 8.918 5.508 1.509 0 3.042-.342 4.484-1.063 4.939-2.47 6.927-8.505 4.458-13.444-2.469-4.941-8.479-6.944-13.415-4.474z" data-original="#000000" class="active-path" data-old_color="#000000" fill="#FFFFFF"/></g></g> </svg>
