<svg xmlns="http://www.w3.org/2000/svg" viewBox="0 0 4586.03 957.62"><defs><style>.cls-1{fill:#f9cdcd;}</style></defs><g id="Calque_2" data-name="Calque 2"><g id="Calque_1-2" data-name="Calque 1"><path class="cls-1" d="M4001.26,208c-39.66-15.06-77.1-12.54-114-3.79,2.19-2.34,4.63-4.35,6.69-6.87,40.63-49.62,54.69-123.81,34.43-184.36a12,12,0,0,0-1.58-2.75c-.49-5.69-4.27-10.77-11.68-10.17-95.77,7.71-179,76.65-206.44,165.41-21.56-64.33-69.49-124.23-120.08-161.81-3.73-2.77-7.36-2.72-10.41-1.28a11,11,0,0,0-1,.58,11.63,11.63,0,0,0-2.05,1.53,11.5,11.5,0,0,0-1.49,1.11c-19.29,21.64-29.33,53.94-36.69,81.34a11.1,11.1,0,0,0,2.59,10.87,11.62,11.62,0,0,0,6.06,4.36c68.75,21,120,75,139.23,143.48-76.43-12.74-141.53-61-224.24-50.72-79.77,9.91-141.86,65-175,136.59-85.47,184.7,13.1,406.34,133.65,551.75,63.13,76.15,121.8,67.86,208.27,39.16,62.67-20.8,105.2-8.79,166.15,6.5,33.81,8.48,71.78,17.33,106.8,11.8,84-13.25,138.13-115.31,168.35-185.05,44.5-102.68,78.85-208.14,75.57-321.3C4141.67,340.56,4093.38,243,4001.26,208ZM3906.21,26c15.43,54.11,2.19,122.16-37.72,162.91-36.83,37.61-93.52,50.29-144.68,57.67a11.23,11.23,0,0,0,.43-3.26C3716.43,137.2,3800.76,39.46,3906.21,26ZM3956,883.41c-82.33,76.9-174-4.87-266.16-1-44.08,1.82-82.89,24.9-124.9,35.36-75.16,18.71-119.46-35.58-156.85-92.25C3344.9,729.73,3286.48,626,3279,509.12c-7.47-117.1,43.53-263.88,173.28-287.89,93-17.19,164.12,44.91,252.48,51.59a11.2,11.2,0,0,0,5.31.47c25.38-.35,50.21-6.09,74.81-13.59a309.1,309.1,0,0,0,34.53-11.34c52.36-18.05,104.29-36.87,158.74-22,147.94,40.39,156.72,224.4,128.71,347.29C4082.87,679,4036.54,808.17,3956,883.41Z"/><path class="cls-1" d="M3480,293.84c-83.59,34.42-125.83,139.76-111.75,224.73,2.6,15.68,26.46,9,23.87-6.59-11.61-70.05,24.42-165.43,94.46-194.27C3501.08,311.73,3494.72,287.77,3480,293.84Z"/><path class="cls-1" d="M3384.66,569.74c-15.93,0-15.95,24.76,0,24.76S3400.62,569.74,3384.66,569.74Z"/><path class="cls-1" d="M4490.2,478.27a103.31,103.31,0,0,0,9.69-11.54c3.12-4.36-1.38-11.09-6.43-10.68-30.06,2.46-58.87-3.4-88.66-5.91-25.78-2.17-49.5,2.89-74,9.63-7.13-27.33-17.71-53.91-33-77.7-13.4-20.78-23.35-11.59-43.56-1.47-3.49,1.74-4.25,6.84-2.35,9.92a272,272,0,0,1,32.83,79.15c-21.52,7.25-42.12,16.22-61,29.17-23.5,16.12-41,40.91-68.56,50.43a7.3,7.3,0,0,0-2.93,12.16,51.28,51.28,0,0,0,10.36,7.91c-122.16,126.4,69.8,301.24,176.09,360.16,46.92,26,98.05,44.61,143,6.2,59.89-51.23,89.52-140.4,99.75-215.86C4593,634.22,4589.74,504.09,4490.2,478.27ZM4217.78,685.16c-7.77,3.63-14.91-2.8-16.53-10.25-1.8-8.29-.73-17.84-.77-26.33a5.53,5.53,0,0,1,3.33-6.37c3.69-2.17,9.2-1,10.65,3.53,0,.1.12.15.17.25C4218.85,655.8,4233.66,677.73,4217.78,685.16Zm50,93c-7.55,3.73-15-2.3-17-9.56-2.3-8.48-2.15-18.08-3-26.8-.4-4.07,2.2-6.27,5.28-6.8a6.1,6.1,0,0,1,8.07,2.9c3.91,7.25,9.73,13.82,12,21.9C4274.85,766.17,4274.53,774.84,4267.79,778.17Zm12-186.71c-6.39-20.58-15.12-42.68-5.22-63.62,3.34-7.08-5.89-14.88-11.57-8.42-18.78,21.33-61.55,53.67-91.4,38.31,12.63-6.62,22.52-15.54,34-25.57,27.12-23.61,55.27-40,89.79-50.94a6.61,6.61,0,0,0,4.73-5.42,7.71,7.71,0,0,0,.2-.86c0-.09,0-.18,0-.27a7.41,7.41,0,0,0,0-2.48A283.63,283.63,0,0,0,4268,389.78l7.26-3.63q7.74-7.14,10.27,3.5c5.59,4.92,9.53,16.21,12.84,22.85,9.23,18.56,15.71,38,20.5,58.08a6,6,0,0,0,4.64,4.76,6.63,6.63,0,0,0,4.33.23c33.95-9.65,61.43-12.84,96-8.67,18,2.18,35.72,4.22,53.7,4.18-27,26.22-67,28.51-103.63,22.57-7.35-1.2-11.49,6.7-6.7,12.24,15.05,17.38,18.82,35.72,20.33,56.72-21.56-5-40.79-13.05-50.21-36-2.41-5.87-12.66-7.55-13.92.28C4318.76,555.57,4301.72,575.08,4279.76,591.46Zm35.82,89.84c-7.59,3.69-15-2.44-16.81-9.75-2.14-8.52-1.66-18.14-2.24-26.88a6.15,6.15,0,0,1,5.23-6.78c2.89-1.23,6.28-.78,8.11,2.88,3.69,7.37,9.31,14.13,11.34,22.24C4322.81,669.44,4322.33,678,4315.58,681.3ZM4343.13,845c-7.55,3.74-15-2.29-17-9.55-2.3-8.49-2.15-18.08-3-26.81-.4-4.07,2.2-6.27,5.28-6.8a6.11,6.11,0,0,1,8.06,2.9c3.92,7.25,9.74,13.82,12,21.9C4350.19,833,4349.87,841.66,4343.13,845Zm49.71-91.72c-7.55,3.74-15-2.3-17-9.55-2.3-8.49-2.16-18.09-3-26.81-.4-4.07,2.2-6.27,5.29-6.8a6.1,6.1,0,0,1,8.06,2.9c3.91,7.25,9.74,13.82,11.95,21.9C4399.9,741.27,4399.58,749.94,4392.84,753.27Zm13.46-126.56c-2.91-7.83-3.25-17.23-4.6-25.46,0-.11,0-.19,0-.3-1.24-4.61,2.75-8.51,7-8.7a5.54,5.54,0,0,1,6.28,3.53c4.24,6.65,9.88,12.48,12.69,20,2.35,6.27,2.72,14.91-3.7,18.92C4416.82,639.12,4408.9,633.68,4406.3,626.71Zm25.18,275.68c-7.55,3.74-15-2.3-17-9.56-2.29-8.48-2.15-18.08-3-26.8-.4-4.07,2.2-6.27,5.28-6.8a6.11,6.11,0,0,1,8.07,2.9c3.91,7.25,9.74,13.82,11.95,21.9C4438.54,890.39,4438.22,899.06,4431.48,902.39Zm52.75-91.89c-7.55,3.73-15-2.3-17-9.56-2.3-8.49-2.16-18.08-3-26.81-.4-4.06,2.2-6.26,5.29-6.79a6.1,6.1,0,0,1,8.06,2.89c3.91,7.25,9.74,13.83,11.95,21.9C4491.29,798.5,4491,807.16,4484.23,810.5Zm13.66-99.57c-7.55,3.73-15-2.3-17-9.56-2.3-8.49-2.15-18.08-3-26.81-.39-4.06,2.21-6.26,5.29-6.79a6.09,6.09,0,0,1,8.06,2.89c3.92,7.26,9.74,13.83,12,21.9C4505,698.93,4504.63,707.59,4497.89,710.93Zm7.1-116.14c-7.55,3.73-15-2.3-17-9.56-2.29-8.49-2.15-18.08-3-26.8-.4-4.07,2.2-6.27,5.28-6.8a6.11,6.11,0,0,1,8.07,2.89c3.91,7.26,9.74,13.83,11.95,21.9C4512.05,582.79,4511.73,591.45,4505,594.79Z"/><path class="cls-1" d="M0,272.2l237.68-22.79L209.19,548.14l120.47-8.95,9.77-284.08,232-11.4-65.93,628.4L316.64,894.9l10.58-179.08L241.75,728l-8.14,187.22L30.93,919.32Z"/><path class="cls-1" d="M860.37,857.46h-1.63q-22,30.94-55.76,43.14t-72.85,12.21A163.79,163.79,0,0,1,668.27,901,151.61,151.61,0,0,1,617,867.22q-22-22-35-52.9t-13-69.19q0-33.37,13-61.46a154.41,154.41,0,0,1,35.41-48.84,163.82,163.82,0,0,1,52.91-32.55q30.53-11.81,66.33-11.81,37.44,0,63.09,11t43.55,24.83V601.87q0-37.44-24.42-49.66T755.37,540a289.34,289.34,0,0,0-66.75,7.33q-30.95,7.32-62.68,17.09L657.69,435a465.69,465.69,0,0,1,81.4-15.87,821,821,0,0,1,86.28-4.48A328.2,328.2,0,0,1,903.51,424q38.25,9.38,67.15,30.53t46,54.53q17.1,33.39,16.28,82.22L1024,899,860.37,912.81ZM757,706.87Q729.32,711,711.41,726T696,759.78q3.24,18.74,23.2,28.08t51.68,4.48Q802.59,787.45,818,772t12.21-33.37q-2.43-15.45-20.76-26.46T757,706.87Z"/><path class="cls-1" d="M1254.33,426.05V516.4H1256q21.16-90.36,122.09-90.35a334.76,334.76,0,0,1,41.52,2.44l-42.33,173.38a86.9,86.9,0,0,0-12.21-.81h-16.28q-34.18,0-59,22.38t-24.82,70.41V903L1094,917.69l-4.89-477Z"/><path class="cls-1" d="M1599.46,494.42h3.25q26.86-36.63,55-49.65t61.45-13q34.19,0,60.23,12.21a123.61,123.61,0,0,1,44,34.19,155,155,0,0,1,27.27,51.28q9.35,29.31,9.36,63.5v315l-175.82,14.66,2.45-296.29q.8-14.65-11-24.42t-28.08-9.77a46.05,46.05,0,0,0-28.08,9.36q-12.63,9.36-12.62,25.64L1610,921l-173.38-12.21-6.51-463.16,169.31-13.84Z"/><path class="cls-1" d="M2395.52,632.8q8.13,56.16-5.29,104.6t-43.14,85.46q-29.73,37-74.07,61t-98.9,31.34q-54.54,7.32-104.19-3.26t-88.73-37.85q-39.06-27.25-65.12-70t-33.37-98.9q-8.13-56.16,5.29-104.59t43.15-85.88q29.7-37.44,74.07-61.46t98.9-31.33q54.51-7.34,103.78,3.25t88.31,37.85q39.08,27.29,65.12,70.41T2395.52,632.8ZM2053.65,702q13.83,31.74,43.95,41.51T2166,737q37.42-16.28,51.68-44.36t1.23-59.83q-13.86-30.93-44-41.11t-67.56,6.11q-38.26,16.29-52.5,44.77T2053.65,702Z"/><path class="cls-1" d="M2419.12,265.69l184-14.65-7.33,655.26L2424.81,921Z"/><path class="cls-1" d="M3124,907.11l-159.54,10.58v-46.4h-1.63q-19.53,26.07-53.32,37.85a205,205,0,0,1-68,11.81,200.39,200.39,0,0,1-80.18-16.69,209.78,209.78,0,0,1-68.78-48q-30.12-31.32-48-76.91t-17.91-103.38q0-52.08,15.06-98.08t43.55-80.59a202.8,202.8,0,0,1,70.4-54.54q41.92-19.94,95.65-19.94a196.67,196.67,0,0,1,52.09,6.92,110.82,110.82,0,0,1,44,23.2l-7.33-193.73,187.21-14.65ZM2898.55,745.94q17.89-6.5,30.11-17.5A85.3,85.3,0,0,0,2947.79,704a69.21,69.21,0,0,0,7.74-28.08,73,73,0,0,0-4.07-28.49,68.64,68.64,0,0,0-15.07-23.6,74.84,74.84,0,0,0-24-16.69,85.44,85.44,0,0,0-30.52-6.92,88.19,88.19,0,0,0-34.59,5.7q-18.75,6.52-30.94,17.91a90.8,90.8,0,0,0-19.12,24.82,69.63,69.63,0,0,0-7.74,28.49,68.5,68.5,0,0,0,4.07,28.08,63.15,63.15,0,0,0,15.06,24,78,78,0,0,0,24,16.28,79.66,79.66,0,0,0,30.53,6.51Q2879.82,752.47,2898.55,745.94Z"/></g></g></svg>