<svg xmlns="http://www.w3.org/2000/svg" viewBox="0 0 797.48 655.14"><defs><style>.cls-1,.cls-2{fill:#fff;}.cls-2{font-size:200px;font-family:GROBOLD;}</style></defs><g id="Calque_2" data-name="Calque 2"><g id="Calque_1-2" data-name="Calque 1"><path class="cls-1" d="M430.85,81.9C415.23,76,400.49,77,386,80.41c.86-.92,1.82-1.72,2.63-2.71,16-19.54,21.54-48.75,13.56-72.59A4.62,4.62,0,0,0,401.55,4,4.06,4.06,0,0,0,397,0c-37.71,3-70.47,30.18-81.29,65.13-8.49-25.33-27.36-48.91-47.28-63.71a3.83,3.83,0,0,0-4.1-.51c-.14.06-.27.16-.41.23a4.72,4.72,0,0,0-.81.6,5.63,5.63,0,0,0-.59.44c-7.6,8.52-11.55,21.24-14.45,32a4.38,4.38,0,0,0,1,4.28,4.64,4.64,0,0,0,2.39,1.72,81.5,81.5,0,0,1,54.82,56.49c-30.09-5-55.73-24-88.29-20-31.41,3.91-55.86,25.59-68.91,53.79-33.66,72.73,5.15,160,52.62,217.25,24.86,30,48,26.73,82,15.43,24.68-8.2,41.43-3.47,65.43,2.56,13.31,3.34,28.26,6.82,42.05,4.64,33.06-5.21,54.39-45.4,66.29-72.86C475,257.12,488.5,215.6,487.21,171,486.14,134.1,467.12,95.67,430.85,81.9ZM393.42,10.24c6.08,21.31.87,48.1-14.85,64.15-14.5,14.81-36.83,19.8-57,22.71a4.36,4.36,0,0,0,.17-1.28C318.69,54,351.9,15.54,393.42,10.24ZM413,347.85c-32.42,30.28-68.52-1.91-104.8-.41-17.36.72-32.64,9.81-49.19,13.92-29.59,7.37-47-14-61.76-36.32-24.87-37.7-47.87-78.55-50.81-124.57S163.6,96.57,214.69,87.11c36.61-6.77,64.63,17.69,99.42,20.32a4.52,4.52,0,0,0,2.09.18c10-.13,19.77-2.4,29.46-5.35a121.3,121.3,0,0,0,13.59-4.46c20.62-7.11,41.07-14.52,62.51-8.67C480,105,483.47,177.49,472.44,225.88,463,267.38,444.74,318.23,413,347.85Z"/><path class="cls-1" d="M225.58,115.7c-32.91,13.56-49.54,55-44,88.49,1,6.18,10.42,3.56,9.4-2.59-4.57-27.59,9.62-65.14,37.19-76.5C233.9,122.75,231.39,113.31,225.58,115.7Z"/><path class="cls-1" d="M188.06,224.34c-6.28,0-6.29,9.75,0,9.75S194.34,224.34,188.06,224.34Z"/><path class="cls-1" d="M623.38,188.33a41.87,41.87,0,0,0,3.81-4.55c1.23-1.72-.54-4.36-2.53-4.2-11.84,1-23.18-1.34-34.91-2.33-10.15-.86-19.49,1.14-29.13,3.79a105,105,0,0,0-13-30.59c-5.27-8.19-9.19-4.57-17.15-.59a2.87,2.87,0,0,0-.92,3.91,107.31,107.31,0,0,1,12.93,31.17,96,96,0,0,0-24,11.48c-9.25,6.35-16.16,16.11-27,19.86a2.88,2.88,0,0,0-1.15,4.79,19.54,19.54,0,0,0,4.08,3.11C446.27,274,521.85,342.8,563.7,366c18.48,10.24,38.61,17.56,56.3,2.43,23.58-20.17,35.25-55.28,39.28-85C663.84,249.73,662.57,198.49,623.38,188.33ZM516.11,269.79c-3.06,1.43-5.88-1.1-6.51-4-.71-3.27-.29-7-.3-10.37a2.18,2.18,0,0,1,1.31-2.51,2.85,2.85,0,0,1,4.19,1.39s.05.06.07.1C516.53,258.23,522.36,266.87,516.11,269.79Zm19.69,36.63c-3,1.47-5.92-.91-6.69-3.77-.9-3.34-.85-7.12-1.18-10.55a2.34,2.34,0,0,1,2.08-2.68,2.39,2.39,0,0,1,3.17,1.14c1.54,2.86,3.84,5.45,4.71,8.62C538.58,301.69,538.45,305.1,535.8,306.42Zm4.71-73.52c-2.51-8.11-6-16.81-2-25.06,1.31-2.78-2.32-5.85-4.56-3.31-7.39,8.4-24.23,21.13-36,15.09,5-2.61,8.87-6.13,13.4-10.07a96.52,96.52,0,0,1,35.36-20.06,2.63,2.63,0,0,0,1.86-2.14,1.86,1.86,0,0,0,.07-.34.34.34,0,0,0,0-.1,2.71,2.71,0,0,0,0-1,111.59,111.59,0,0,0-12.71-32.45l2.86-1.43q3-2.81,4,1.38c2.21,1.94,3.76,6.38,5.06,9a106.14,106.14,0,0,1,8.07,22.87,2.39,2.39,0,0,0,1.83,1.87,2.56,2.56,0,0,0,1.7.09c13.37-3.8,24.19-5.06,37.8-3.41a171.27,171.27,0,0,0,21.14,1.64c-10.63,10.33-26.39,11.23-40.8,8.89a2.87,2.87,0,0,0-2.64,4.82c5.92,6.84,7.41,14.07,8,22.33-8.49-2-16.06-5.13-19.77-14.18-.95-2.31-5-3-5.48.11C555.87,218.76,549.16,226.45,540.51,232.9Zm14.11,35.37c-3,1.45-5.9-1-6.62-3.84-.85-3.35-.66-7.14-.89-10.58a2.43,2.43,0,0,1,2.07-2.67,2.31,2.31,0,0,1,3.19,1.13c1.45,2.9,3.66,5.56,4.46,8.76C557.47,263.6,557.28,267,554.62,268.27Zm10.84,64.46c-3,1.47-5.91-.91-6.68-3.77-.91-3.34-.85-7.11-1.19-10.55a2.35,2.35,0,0,1,2.08-2.68,2.42,2.42,0,0,1,3.18,1.14c1.54,2.86,3.83,5.45,4.71,8.63C568.24,328,568.12,331.41,565.46,332.73ZM585,296.61c-3,1.47-5.91-.9-6.69-3.76-.9-3.34-.85-7.12-1.18-10.56a2.33,2.33,0,0,1,2.08-2.67,2.4,2.4,0,0,1,3.18,1.14c1.54,2.85,3.83,5.44,4.7,8.62C587.82,291.89,587.69,295.3,585,296.61Zm5.3-49.83c-1.15-3.09-1.28-6.79-1.81-10,0,0,0-.08,0-.12a2.84,2.84,0,0,1,2.76-3.42,2.17,2.17,0,0,1,2.47,1.39c1.67,2.61,3.89,4.91,5,7.85.92,2.47,1.07,5.87-1.46,7.45C594.48,251.66,591.36,249.52,590.34,246.78Zm9.91,108.55c-3,1.47-5.91-.91-6.68-3.76-.91-3.35-.85-7.12-1.19-10.56a2.35,2.35,0,0,1,2.08-2.68,2.42,2.42,0,0,1,3.18,1.14c1.54,2.86,3.83,5.45,4.71,8.63C603,350.6,602.91,354,600.25,355.33ZM621,319.14c-3,1.47-5.92-.9-6.69-3.76-.91-3.34-.85-7.12-1.19-10.55a2.34,2.34,0,0,1,2.09-2.68,2.4,2.4,0,0,1,3.17,1.14c1.54,2.86,3.83,5.44,4.71,8.62C623.81,314.42,623.68,317.83,621,319.14Zm5.37-39.2c-3,1.47-5.91-.91-6.68-3.77-.91-3.34-.85-7.11-1.19-10.55a2.34,2.34,0,0,1,2.08-2.68,2.42,2.42,0,0,1,3.18,1.14c1.54,2.86,3.83,5.45,4.71,8.63C629.18,275.21,629.06,278.63,626.4,279.94Zm2.8-45.73c-3,1.47-5.91-.91-6.69-3.77-.9-3.34-.85-7.12-1.18-10.55a2.34,2.34,0,0,1,2.08-2.68,2.39,2.39,0,0,1,3.17,1.14c1.55,2.86,3.84,5.45,4.71,8.62C632,229.48,631.85,232.89,629.2,234.21Z"/><text class="cls-2" transform="translate(0 566.21)">Harnold</text></g></g></svg>