<svg xmlns="http://www.w3.org/2000/svg" viewBox="0 0 1129.42 264.68"><defs><style>.cls-1,.cls-2{fill:#f9cdcd;}.cls-2{font-size:200px;font-family:GROBOLD;}</style></defs><g id="Calque_2" data-name="Calque 2"><g id="Calque_1-2" data-name="Calque 1"><path class="cls-1" d="M985.74,51.1c-9.75-3.7-19-3.08-28-.93.54-.57,1.14-1.07,1.64-1.68,10-12.2,13.44-30.43,8.46-45.3a2.81,2.81,0,0,0-.39-.68A2.54,2.54,0,0,0,964.58,0c-23.53,1.9-44,18.84-50.72,40.64-5.3-15.8-17.07-30.52-29.5-39.75A2.39,2.39,0,0,0,881.8.58c-.09,0-.17.1-.26.15a2.59,2.59,0,0,0-.5.37,2.33,2.33,0,0,0-.37.27c-4.74,5.32-7.21,13.26-9,20a2.73,2.73,0,0,0,.64,2.67,2.86,2.86,0,0,0,1.49,1.07A50.88,50.88,0,0,1,908,60.36c-18.78-3.13-34.78-15-55.1-12.47-19.6,2.44-34.85,16-43,33.57-21,45.38,3.22,99.83,32.84,135.56,15.51,18.71,29.93,16.68,51.18,9.63,15.39-5.12,25.84-2.17,40.82,1.59,8.31,2.09,17.64,4.26,26.24,2.9,20.63-3.25,33.94-28.33,41.37-45.47,10.93-25.23,19.37-51.14,18.56-78.94C1020.24,83.68,1008.37,59.7,985.74,51.1ZM962.38,6.39c3.79,13.3.54,30-9.27,40-9.05,9.24-23,12.36-35.54,14.17a2.92,2.92,0,0,0,.1-.8C915.75,33.71,936.47,9.7,962.38,6.39Zm12.23,210.67c-20.23,18.89-42.75-1.2-65.4-.26-10.83.45-20.36,6.12-30.69,8.69-18.46,4.6-29.35-8.74-38.53-22.67-15.53-23.52-29.88-49-31.71-77.73S819,60.26,850.86,54.36c22.84-4.23,40.32,11,62,12.67a2.75,2.75,0,0,0,1.31.12,66.65,66.65,0,0,0,18.38-3.34A74.43,74.43,0,0,0,941.06,61c12.87-4.43,25.63-9.05,39-5.4,36.34,9.92,38.5,55.13,31.62,85.33C1005.79,166.84,994.4,198.57,974.61,217.06Z"/><path class="cls-1" d="M857.65,72.2c-20.54,8.46-30.92,34.34-27.46,55.22.64,3.85,6.51,2.21,5.87-1.62-2.85-17.22,6-40.65,23.21-47.74C862.84,76.59,861.28,70.71,857.65,72.2Z"/><path class="cls-1" d="M834.23,140c-3.91,0-3.92,6.08,0,6.08S838.16,140,834.23,140Z"/><path class="cls-1" d="M1105.87,117.52a24.66,24.66,0,0,0,2.38-2.84,1.78,1.78,0,0,0-1.58-2.62c-7.38.6-14.46-.84-21.78-1.46-6.34-.53-12.16.71-18.18,2.37a65.52,65.52,0,0,0-8.12-19.09c-3.29-5.11-5.74-2.85-10.7-.37a1.79,1.79,0,0,0-.58,2.44,67.09,67.09,0,0,1,8.07,19.45,59.92,59.92,0,0,0-15,7.17c-5.77,4-10.08,10.05-16.84,12.39a1.79,1.79,0,0,0-.72,3,12.25,12.25,0,0,0,2.54,1.94c-30,31.06,17.15,74,43.27,88.5,11.53,6.39,24.09,11,35.12,1.52,14.72-12.59,22-34.5,24.51-53C1131.12,155.83,1130.33,123.86,1105.87,117.52Zm-66.93,50.83c-1.91.89-3.67-.69-4.06-2.52-.45-2-.18-4.38-.19-6.47a1.34,1.34,0,0,1,.81-1.56,1.78,1.78,0,0,1,2.62.86s0,0,0,.06C1039.2,161.13,1042.84,166.52,1038.94,168.35Zm12.28,22.85c-1.85.92-3.69-.56-4.17-2.35a41.29,41.29,0,0,1-.74-6.58,1.46,1.46,0,0,1,1.3-1.67,1.49,1.49,0,0,1,2,.71c1,1.78,2.39,3.4,2.94,5.38C1053,188.25,1052.88,190.38,1051.22,191.2Zm3-45.87c-1.57-5.06-3.72-10.49-1.29-15.64.82-1.74-1.44-3.65-2.84-2.07-4.61,5.24-15.12,13.19-22.46,9.42,3.11-1.63,5.53-3.82,8.36-6.28A60.14,60.14,0,0,1,1058,118.24a1.64,1.64,0,0,0,1.17-1.33,1.55,1.55,0,0,0,0-.21.16.16,0,0,0,0-.07,1.8,1.8,0,0,0,0-.61,69.62,69.62,0,0,0-7.93-20.25l1.78-.89q1.9-1.75,2.53.86c1.37,1.21,2.34,4,3.15,5.61a66.25,66.25,0,0,1,5,14.28,1.46,1.46,0,0,0,1.14,1.16,1.58,1.58,0,0,0,1.06.06c8.34-2.37,15.09-3.16,23.58-2.13a107,107,0,0,0,13.2,1c-6.63,6.44-16.47,7-25.46,5.54a1.79,1.79,0,0,0-1.65,3c3.7,4.27,4.62,8.78,5,13.94-5.3-1.24-10-3.21-12.34-8.85-.59-1.45-3.11-1.86-3.42.07C1063.75,136.51,1059.56,141.3,1054.17,145.33Zm8.8,22.07c-1.87.91-3.68-.6-4.13-2.4a37.22,37.22,0,0,1-.55-6.6,1.52,1.52,0,0,1,1.28-1.67,1.45,1.45,0,0,1,2,.71c.91,1.81,2.29,3.47,2.79,5.46C1064.74,164.49,1064.63,166.59,1063,167.4Zm6.76,40.22c-1.85.92-3.69-.56-4.17-2.35a41.29,41.29,0,0,1-.74-6.58,1.46,1.46,0,0,1,1.3-1.67,1.48,1.48,0,0,1,2,.71c1,1.78,2.4,3.39,2.94,5.38C1071.47,204.67,1071.39,206.8,1069.73,207.62ZM1082,185.08c-1.85.92-3.69-.56-4.17-2.34a40.41,40.41,0,0,1-.74-6.59,1.46,1.46,0,0,1,1.3-1.67,1.5,1.5,0,0,1,2,.71c1,1.78,2.39,3.4,2.94,5.38C1083.68,182.14,1083.61,184.26,1082,185.08Zm3.31-31.09a33.81,33.81,0,0,1-1.13-6.26.16.16,0,0,1,0-.07,1.77,1.77,0,0,1,1.72-2.14,1.36,1.36,0,0,1,1.54.87c1,1.63,2.43,3.06,3.12,4.9.58,1.54.67,3.66-.91,4.65C1087.84,157,1085.9,155.7,1085.26,154Zm6.18,67.73c-1.85.92-3.69-.56-4.17-2.34a41.55,41.55,0,0,1-.74-6.59,1.46,1.46,0,0,1,1.3-1.67,1.5,1.5,0,0,1,2,.71c1,1.78,2.39,3.4,2.94,5.38C1093.18,218.78,1093.1,220.9,1091.44,221.72Zm13-22.58c-1.86.92-3.7-.56-4.18-2.34a41.55,41.55,0,0,1-.74-6.59,1.47,1.47,0,0,1,1.3-1.67,1.5,1.5,0,0,1,2,.71c1,1.78,2.4,3.4,2.94,5.38C1106.14,196.2,1106.06,198.33,1104.41,199.14Zm3.35-24.46c-1.85.92-3.69-.57-4.17-2.35a40.17,40.17,0,0,1-.74-6.59,1.46,1.46,0,0,1,1.3-1.67,1.5,1.5,0,0,1,2,.72c1,1.78,2.39,3.39,2.94,5.38C1109.5,171.73,1109.42,173.86,1107.76,174.68Zm1.75-28.54c-1.86.92-3.69-.56-4.18-2.34a41.55,41.55,0,0,1-.74-6.59,1.47,1.47,0,0,1,1.3-1.67,1.5,1.5,0,0,1,2,.71c1,1.78,2.4,3.4,2.94,5.38C1111.24,143.2,1111.16,145.32,1109.51,146.14Z"/><text class="cls-2" transform="translate(0 224.28)">Harnold</text></g></g></svg>