<svg xmlns="http://www.w3.org/2000/svg" width="24" height="24" viewBox="0 0 24 24">
    <g fill="none" fill-rule="evenodd">
        <path d="M0 0L24 0 24 24 0 24z"/>
        <path fill="#CED4DA" fill-rule="nonzero" d="M18.335 18.339H15.67v-4.177c0-.996-.02-2.278-1.39-2.278-1.389 0-1.601 1.084-1.601 2.205v4.25h-2.666V9.75h2.56v1.17h.035c.358-.674 1.228-1.387 2.528-1.387 2.7 0 3.2 1.778 3.2 4.091v4.715h-.001zM7.003 8.575c-.41 0-.805-.163-1.096-.453-.29-.29-.453-.685-.452-1.096 0-.855.694-1.548 1.549-1.547.855 0 1.548.694 1.547 1.549 0 .855-.694 1.548-1.549 1.547h.001zm1.336 9.764H5.666V9.75H8.34v8.589h-.001zM19.67 3H4.329C3.593 3 3 3.58 3 4.297v15.406C3 20.42 3.594 21 4.328 21h15.338C20.4 21 21 20.42 21 19.703V4.297C21 3.58 20.4 3 19.666 3h.004z"/>
    </g>
</svg>
