<svg id="Calque_1" data-name="Calque 1" xmlns="http://www.w3.org/2000/svg" viewBox="0 0 538 140"><defs><style>.cls-1{font-size:72.17px;fill:#ffa000;font-family:AllerDisplay-Regular, Aller Display;}.cls-2{fill:none;stroke:#ffa000;stroke-linecap:round;stroke-miterlimit:10;stroke-width:5.31px;fill-rule:evenodd;}</style></defs><text class="cls-1" transform="translate(162.16 97.88)">Harnold.</text><path class="cls-2" d="M105.43,41.85c6.4-5.28,12.5-9.11,21.49-5.44s17.32,21.28,3.56,47c-4.67,8.72-9.88,14.71-18.32,16.25-3.07.56-3.44-.76-7.15-.76s-3.44,1.27-7.48.86c-6-.63-12.74-8.15-17.19-16.46C66.59,57.59,73,39.58,82,35.9c5.49-2.24,17.09-2.48,23.46,6"/><path class="cls-2" d="M124.18,67.39a66.67,66.67,0,0,1-5.66,14"/><path class="cls-2" d="M105.43,25V41.85"/></svg>