<svg id="Calque_1" data-name="Calque 1" xmlns="http://www.w3.org/2000/svg" viewBox="0 0 538 140"><defs><style>.cls-1{font-size:72.17px;font-family:AllerDisplay-Regular, Aller Display;}.cls-1,.cls-2{fill:#ffa000;}.cls-2,.cls-4{stroke:#ffa000;}.cls-2,.cls-3,.cls-4{stroke-linecap:round;stroke-miterlimit:10;stroke-width:5.31px;fill-rule:evenodd;}.cls-3,.cls-4{fill:none;}.cls-3{stroke:#fff;}</style></defs><text class="cls-1" transform="translate(162.16 97.51)">Harnold.</text><path class="cls-2" d="M105.79,41.48c6.4-5.28,12.49-9.12,21.48-5.44s17.32,21.28,3.57,47c-4.67,8.73-9.89,14.72-18.32,16.26-3.07.56-3.45-.76-7.16-.76s-3.43,1.27-7.47.85c-6-.62-12.75-8.14-17.19-16.45C67,57.22,73.34,39.21,82.33,35.53c5.48-2.24,17.09-2.48,23.46,5.95"/><path class="cls-3" d="M124.53,67a65.61,65.61,0,0,1-5.66,14"/><path class="cls-4" d="M105.79,24.63V41.48"/></svg>