<?xml version="1.0"?>
<svg xmlns="http://www.w3.org/2000/svg" xmlns:xlink="http://www.w3.org/1999/xlink" version="1.1" id="Capa_1" x="0px" y="0px" viewBox="0 0 512.003 512.003" style="enable-background:new 0 0 512.003 512.003;" xml:space="preserve" width="512px" height="512px"><g><g>
	<g>
		<path d="M173.717,351.307l-0.264-0.72c-1.899-5.185-7.641-7.848-12.828-5.952c-5.185,1.899-7.85,7.641-5.952,12.828l0.264,0.72    c1.483,4.052,5.313,6.564,9.391,6.564c1.142,0,2.303-0.197,3.437-0.612C172.95,362.236,175.615,356.494,173.717,351.307z" data-original="#000000" class="active-path" data-old_color="#000000" fill="#FAB41F"/>
	</g>
</g><g>
	<g>
		<path d="M437.87,24.776c-2.635-1.542-65.216-37.573-125.617-19.919c-31.153,9.105-54.971,30.511-70.923,49.488    c1.269-5.771,2.74-11.201,4.41-16.193l0.176-0.523c2.947-8.676,1.522-18.298-3.81-25.74c-5.325-7.43-13.964-11.866-23.109-11.866    h-1.148c-12.573,0-23.798,8.412-27.298,20.457c-7.333,25.241-12.002,54.907-12.884,81.121    C114.78,97.004,53.583,128.675,21.54,185.227C-1.123,225.22-6.14,273.285,7.772,317.098    C29.28,384.827,79.076,439.73,144.39,467.727l3.112,1.334c20.36,8.727,38.693,22.272,53.018,39.17    c1.9,2.241,4.707,3.534,7.644,3.534c2.938,0,5.727-1.292,7.627-3.534c6.729-7.938,14.343-15.16,22.628-21.462    c4.396-3.344,5.249-9.617,1.906-14.012c-3.342-4.396-9.616-5.248-14.011-1.906c-6.435,4.896-12.515,10.276-18.162,16.072    c-14.996-15.367-33.048-27.789-52.771-36.243l-3.112-1.334C92.301,423.64,46.581,373.231,26.833,311.044    c-12.234-38.525-7.821-80.792,12.105-115.96c29.398-51.882,86.7-79.947,144.483-72.824c-52.18,42.93-72.785,115.03-48.943,180.091    l5.609,15.309c1.484,4.05,5.313,6.561,9.389,6.561c1.142,0,2.305-0.198,3.44-0.614c5.186-1.9,7.848-7.644,5.948-12.829    l-5.61-15.309c-23.23-63.389,1.705-134.407,59.291-169.413c48.801-12.93,101.604,0.632,138.112,35.562    c3.991,3.817,10.319,3.679,14.138-0.313c3.818-3.991,3.678-10.32-0.313-14.138c-8.845-8.462-18.605-15.895-29.053-22.184    c3.896-0.715,7.797-1.61,11.69-2.748c60.432-17.662,93.261-81.615,94.629-84.329C444.122,33.193,442.426,27.444,437.87,24.776z     M226.979,31.196l-0.21,0.625c-6.645,19.865-10.497,45.582-10.966,72.937c-2.674,0.562-5.341,1.169-7.989,1.864    c-3.403-0.894-6.812-1.675-10.227-2.347c0.64-25.071,5.081-53.827,12.166-78.214c1.034-3.556,4.363-6.039,8.095-6.039h1.148    c2.754,0,5.25,1.282,6.852,3.517C227.457,25.784,227.869,28.577,226.979,31.196z M341.509,103.042    c-33.591,9.819-69.389-0.404-90.691-8.967c38.256-15.813,78.639-23.841,120.147-23.841c5.522,0,9.999-4.477,9.999-9.999    s-4.477-9.999-9.999-9.999c-40.553,0-80.099,7.195-117.806,21.403c14.029-17.706,36.039-39.207,64.703-47.585    c39.881-11.657,82.873,4.935,101.024,13.461C408.302,54.448,381.324,91.406,341.509,103.042z" data-original="#000000" class="active-path" data-old_color="#000000" fill="#FAB41F"/>
	</g>
</g><g>
	<g>
		<path d="M473.11,248.959l-1.6-2.139c-10.279-13.742-17.331-29.929-20.396-46.813c-0.525-2.891-2.294-5.404-4.839-6.873    s-5.605-1.745-8.372-0.754c-16.674,5.975-33.593,7.996-50.282,6.006l-2.654-0.316c-56.308-6.712-112.616,11.361-154.501,49.582    c-27.232,24.852-43.022,60.248-43.32,97.114c-0.487,60.267,39.428,113.067,97.324,129.145    c19.955,19.603,45.072,32.209,72.772,36.498c6.875,1.064,13.752,1.593,20.589,1.593c21.322,0,42.245-5.142,61.434-15.203    c4.892-2.564,6.777-8.607,4.213-13.499c-2.564-4.892-8.607-6.776-13.499-4.213c-43.915,23.023-96.754,15.027-131.898-19.839    c-0.813-1.154-1.881-2.15-3.174-2.896l-0.456-0.263c-1.29-0.745-2.684-1.171-4.087-1.298    c-49.477-13.481-83.639-58.477-83.224-109.865c0.253-31.319,13.667-61.39,36.803-82.503    c37.589-34.301,88.128-50.518,138.653-44.497l2.654,0.316c16.201,1.931,32.528,0.696,48.678-3.671    c4.341,15.912,11.691,31.026,21.565,44.226l1.6,2.139c30.48,40.747,41.703,92.623,30.791,142.326    c-2.007,9.141-5.148,18.016-9.34,26.379c-2.475,4.938-0.478,10.945,4.459,13.419c4.937,2.474,10.945,0.478,13.419-4.459    c4.934-9.844,8.633-20.291,10.995-31.05C519.579,352.169,507.074,294.365,473.11,248.959z" data-original="#000000" class="active-path" data-old_color="#000000" fill="#FAB41F"/>
	</g>
</g><g>
	<g>
		<path d="M472.297,458.179c-3.907-3.905-10.238-3.905-14.142,0c-0.028,0.028-0.118,0.119-0.145,0.147    c-3.857,3.949-3.773,10.263,0.172,14.123c1.943,1.901,4.465,2.847,6.986,2.846c2.593,0,5.186-1,7.145-2.992    C476.201,468.397,476.195,462.079,472.297,458.179z" data-original="#000000" class="active-path" data-old_color="#000000" fill="#FAB41F"/>
	</g>
</g><g>
	<g>
		<path d="M405.845,274.106c-1.793-3.291-5.271-5.29-9.024-5.211c-3.182,0.078-78.221,2.424-103.978,47.038    c-25.758,44.614,9.729,110.772,11.253,113.567c1.755,3.219,5.126,5.214,8.778,5.214c0.082,0,0.164-0.001,0.246-0.003    c3.182-0.078,78.221-2.424,103.978-47.038S407.369,276.901,405.845,274.106z M399.779,377.674    c-16.485,28.553-63.925,35.171-80.967,36.643c-9.464-19.943-23.795-62.154-8.652-88.383    c16.484-28.553,63.925-35.171,80.967-36.643C400.591,309.234,414.923,351.445,399.779,377.674z" data-original="#000000" class="active-path" data-old_color="#000000" fill="#FAB41F"/>
	</g>
</g></g> </svg>
