<svg xmlns="http://www.w3.org/2000/svg" xmlns:xlink="http://www.w3.org/1999/xlink" viewBox="0 0 138 140"><defs><style>.cls-1,.cls-10,.cls-12,.cls-9{fill:none;}.cls-2{isolation:isolate;}.cls-3{clip-path:url(#clip-path);}.cls-4,.cls-5{fill:#ffb300;}.cls-5{opacity:0.52;mix-blend-mode:darken;}.cls-6{opacity:0.34;mix-blend-mode:lighten;}.cls-7{clip-path:url(#clip-path-2);}.cls-8{fill:#ececed;}.cls-9{stroke:#ffa000;stroke-width:4.01px;}.cls-10,.cls-12,.cls-9{stroke-linecap:round;stroke-miterlimit:10;}.cls-10,.cls-12{stroke:#353435;}.cls-10{stroke-width:3.2px;}.cls-11{fill:#ad6e00;}.cls-11,.cls-12{fill-rule:evenodd;}.cls-12{stroke-width:1.94px;}</style><clipPath id="clip-path"><path class="cls-1" d="M369.45,123.53c0-29.53-23.94-83.38-53.47-83.38S262.51,94,262.51,123.53a53.47,53.47,0,1,0,106.94,0Z"/></clipPath><clipPath id="clip-path-2"><path class="cls-1" d="M55.85,189.34h9.61l61.3-.13.33-.56.22-1.2s.1-6.58.26-8,.56-9.51.62-12.34.3-3.45.72-17.43-1.7-22.32-1.6-27.15c.11-5.22,2.57-14,2.57-16.05,0-.31-16.3-.36-25.9-.5s-19.12.21-20.63,0-25.58-.48-26-.34-.27.69-.27,1.65.36,13.65.36,13.65-1.66,12.26-1.73,16.24-.41,9.6-.41,16.25.41,24.13.34,26.05S55.85,189.34,55.85,189.34Z"/></clipPath></defs><g class="cls-2"><g id="Calque_1" data-name="Calque 1"><g class="cls-3"><path class="cls-4" d="M70.74,180.88h9.6l61.31-.12.32-.56.22-1.2s.11-6.58.26-8,.57-9.52.62-12.34.31-3.45.72-17.44a170.94,170.94,0,0,0-1.6-27.15s2.58-15.73,2.58-16-16.3-.36-25.9-.5-19.13.21-20.64,0-25.57-.48-26-.34-.28.69-.28,1.65.21,14.31.21,14.31-1.51,11.6-1.58,15.58.82,16.25.82,16.25-.82,24.13-.89,26S70.74,180.88,70.74,180.88Z"/><path class="cls-5" d="M71.56,179.86l8.78-.41,56.26-1,5.05,2.32-.91-1.59-.6-2.23s.92-4.52,1.08-6,.2-12.34.2-12.34l1.13-17.44L139.67,114s2.78-13.13,2.78-13.44S117.58,99,117.58,99L98.23,99l-21.82,1.36-2.79-.88.55,12.82-2,13.08.5,19.63-1.72,26Z"/><g class="cls-6"><g class="cls-7"><polygon class="cls-8" points="50.28 192.79 39.65 191.69 62.67 87.54 73.31 88.65 50.28 192.79"/><polygon class="cls-8" points="71.46 197.48 60.83 196.37 83.85 92.23 94.49 93.33 71.46 197.48"/><polygon class="cls-8" points="92.64 202.16 82 201.05 105.03 96.91 115.67 98.01 92.64 202.16"/><polygon class="cls-8" points="113.82 206.84 103.18 205.74 126.21 101.59 136.84 102.69 113.82 206.84"/><rect class="cls-8" x="125.22" y="103.23" width="5.12" height="106.66" transform="translate(36.81 -23.89) rotate(12.47)"/></g></g><path class="cls-9" d="M65.5,147.46h9.6l61.3-.12.33-.57.22-1.2s.11-6.58.26-8,.57-9.51.62-12.34.31-3.44.72-17.43A170.82,170.82,0,0,0,137,80.63s2.57-15.73,2.57-16-16.3-.36-25.9-.5-19.12.21-20.63,0-25.58-.48-26-.34-.27.68-.27,1.64.21,14.32.21,14.32-1.51,11.6-1.58,15.57.82,16.25.82,16.25-.82,24.14-.89,26.06S65.5,147.46,65.5,147.46Z"/></g><g class="cls-3"><path class="cls-4" d="M70.74,180.88h9.6l61.31-.12.32-.56.22-1.2s.11-6.58.26-8,.57-9.52.62-12.34.31-3.45.72-17.44a170.94,170.94,0,0,0-1.6-27.15s2.58-15.73,2.58-16-16.3-.36-25.9-.5-19.13.21-20.64,0-25.57-.48-26-.34-.28.69-.28,1.65.21,14.31.21,14.31-1.51,11.6-1.58,15.58.82,16.25.82,16.25-.82,24.13-.89,26S70.74,180.88,70.74,180.88Z"/><path class="cls-5" d="M71.56,179.86l8.78-.41,56.26-1,5.05,2.32-.91-1.59-.6-2.23s.92-4.52,1.08-6,.2-12.34.2-12.34l1.13-17.44L139.67,114s2.78-13.13,2.78-13.44S117.58,99,117.58,99L98.23,99l-21.82,1.36-2.79-.88.55,12.82-2,13.08.5,19.63-1.72,26Z"/><g class="cls-6"><g class="cls-7"><polygon class="cls-8" points="50.28 192.79 39.65 191.69 62.67 87.54 73.31 88.65 50.28 192.79"/><polygon class="cls-8" points="71.46 197.48 60.83 196.37 83.85 92.23 94.49 93.33 71.46 197.48"/><polygon class="cls-8" points="92.64 202.16 82 201.05 105.03 96.91 115.67 98.01 92.64 202.16"/><polygon class="cls-8" points="113.82 206.84 103.18 205.74 126.21 101.59 136.84 102.69 113.82 206.84"/><rect class="cls-8" x="125.22" y="103.23" width="5.12" height="106.66" transform="translate(36.81 -23.89) rotate(12.47)"/></g></g><path class="cls-9" d="M65.5,147.46h9.6l61.3-.12.33-.57.22-1.2s.11-6.58.26-8,.57-9.51.62-12.34.31-3.44.72-17.43A170.82,170.82,0,0,0,137,80.63s2.57-15.73,2.57-16-16.3-.36-25.9-.5-19.12.21-20.63,0-25.58-.48-26-.34-.27.68-.27,1.64.21,14.32.21,14.32-1.51,11.6-1.58,15.57.82,16.25.82,16.25-.82,24.14-.89,26.06S65.5,147.46,65.5,147.46Z"/></g><line class="cls-10" x1="125" y1="89.19" x2="13.38" y2="89.19"/><path class="cls-11" d="M54.24,87.72a.06.06,0,0,1,0-.09c.38-.43,2.58-2.79,4.92-2.79,2.58,0,4.8,2.85,4.8,2.85S58.67,89.22,54.24,87.72Z"/><path class="cls-12" d="M52.59,87.72a.06.06,0,0,1,0-.09c.38-.43,2.58-2.79,4.92-2.79,2.58,0,4.8,2.85,4.8,2.85S57,89.22,52.59,87.72Z"/><path class="cls-11" d="M64.79,87.72a.06.06,0,0,1,0-.09c.38-.43,2.58-2.79,4.92-2.79,2.58,0,4.8,2.85,4.8,2.85S69.22,89.22,64.79,87.72Z"/><path class="cls-12" d="M63.14,87.72a.06.06,0,0,1,0-.09c.38-.43,2.58-2.79,4.92-2.79,2.58,0,4.8,2.85,4.8,2.85S67.56,89.22,63.14,87.72Z"/><path class="cls-11" d="M75.11,87.72a.06.06,0,0,1,0-.09c.38-.43,2.58-2.79,4.92-2.79,2.58,0,4.8,2.85,4.8,2.85S79.53,89.22,75.11,87.72Z"/><path class="cls-12" d="M73.45,87.72a.06.06,0,0,1,0-.09c.38-.43,2.57-2.79,4.92-2.79,2.57,0,4.79,2.85,4.79,2.85S77.88,89.22,73.45,87.72Z"/><path class="cls-11" d="M58.81,84.19a.07.07,0,0,1,0-.1c.38-.43,2.57-2.78,4.91-2.78,2.58,0,4.8,2.85,4.8,2.85S63.24,85.68,58.81,84.19Z"/><path class="cls-12" d="M57.15,84.19a.07.07,0,0,1,0-.1c.38-.43,2.58-2.78,4.92-2.78,2.58,0,4.8,2.85,4.8,2.85S61.58,85.68,57.15,84.19Z"/><path class="cls-11" d="M63.43,80s0-.07,0-.1c.39-.43,2.58-2.78,4.92-2.78,2.58,0,4.8,2.85,4.8,2.85S67.86,81.53,63.43,80Z"/><path class="cls-12" d="M61.77,80a.07.07,0,0,1,0-.1c.38-.43,2.58-2.78,4.92-2.78,2.58,0,4.8,2.85,4.8,2.85S66.2,81.53,61.77,80Z"/><path class="cls-11" d="M69.12,84.19a.07.07,0,0,1,0-.1c.38-.43,2.57-2.78,4.92-2.78,2.57,0,4.8,2.85,4.8,2.85S73.55,85.68,69.12,84.19Z"/><path class="cls-12" d="M67.47,84.19a.07.07,0,0,1,0-.1c.38-.43,2.58-2.78,4.92-2.78,2.58,0,4.8,2.85,4.8,2.85S71.89,85.68,67.47,84.19Z"/></g></g></svg>