<svg xmlns="http://www.w3.org/2000/svg" xmlns:xlink="http://www.w3.org/1999/xlink" viewBox="0 0 138 140"><defs><style>.cls-1,.cls-10,.cls-9{fill:none;}.cls-2{isolation:isolate;}.cls-3{clip-path:url(#clip-path);}.cls-4,.cls-5{fill:#ffb300;}.cls-5{opacity:0.52;mix-blend-mode:darken;}.cls-6{opacity:0.34;mix-blend-mode:lighten;}.cls-7{clip-path:url(#clip-path-2);}.cls-8{fill:#ececed;}.cls-9{stroke:#ffa000;stroke-width:4.01px;}.cls-10,.cls-9{stroke-linecap:round;stroke-miterlimit:10;}.cls-10{stroke:#353435;stroke-width:3.2px;}.cls-11{fill:#d05a07;}.cls-12{fill:#ee7a22;}.cls-13{fill:#f4972e;}.cls-14{fill:#f7b42c;}</style><clipPath id="clip-path"><path class="cls-1" d="M369.45,123.53c0-29.53-23.94-83.38-53.47-83.38S262.51,94,262.51,123.53a53.47,53.47,0,1,0,106.94,0Z"/></clipPath><clipPath id="clip-path-2"><path class="cls-1" d="M55.85,189.34h9.61l61.3-.13.33-.56.22-1.2s.1-6.58.26-8,.56-9.51.62-12.34.3-3.45.72-17.43-1.7-22.32-1.6-27.15c.11-5.22,2.57-14,2.57-16.05,0-.31-16.3-.36-25.9-.5s-19.12.21-20.63,0-25.58-.48-26-.34-.27.69-.27,1.65.36,13.65.36,13.65-1.66,12.26-1.73,16.24-.41,9.6-.41,16.25.41,24.13.34,26.05S55.85,189.34,55.85,189.34Z"/></clipPath></defs><g class="cls-2"><g id="Calque_1" data-name="Calque 1"><g class="cls-3"><path class="cls-4" d="M70.74,180.88h9.6l61.31-.12.32-.56.22-1.2s.11-6.58.26-8,.57-9.52.62-12.34.31-3.45.72-17.44a170.94,170.94,0,0,0-1.6-27.15s2.58-15.73,2.58-16-16.3-.36-25.9-.5-19.13.21-20.64,0-25.57-.48-26-.34-.28.69-.28,1.65.21,14.31.21,14.31-1.51,11.6-1.58,15.58.82,16.25.82,16.25-.82,24.13-.89,26S70.74,180.88,70.74,180.88Z"/><path class="cls-5" d="M71.56,179.86l8.78-.41,56.26-1,5.05,2.32-.91-1.59-.6-2.23s.92-4.52,1.08-6,.2-12.34.2-12.34l1.13-17.44L139.67,114s2.78-13.13,2.78-13.44S117.58,99,117.58,99L98.23,99l-21.82,1.36-2.79-.88.55,12.82-2,13.08.5,19.63-1.72,26Z"/><g class="cls-6"><g class="cls-7"><polygon class="cls-8" points="50.28 192.79 39.65 191.69 62.67 87.54 73.31 88.65 50.28 192.79"/><polygon class="cls-8" points="71.46 197.48 60.83 196.37 83.85 92.23 94.49 93.33 71.46 197.48"/><polygon class="cls-8" points="92.64 202.16 82 201.05 105.03 96.91 115.67 98.01 92.64 202.16"/><polygon class="cls-8" points="113.82 206.84 103.18 205.74 126.21 101.59 136.84 102.69 113.82 206.84"/><rect class="cls-8" x="125.22" y="103.23" width="5.12" height="106.66" transform="translate(36.81 -23.89) rotate(12.47)"/></g></g><path class="cls-9" d="M65.5,147.46h9.6l61.3-.12.33-.57.22-1.2s.11-6.58.26-8,.57-9.51.62-12.34.31-3.44.72-17.43A170.82,170.82,0,0,0,137,80.63s2.57-15.73,2.57-16-16.3-.36-25.9-.5-19.12.21-20.63,0-25.58-.48-26-.34-.27.68-.27,1.64.21,14.32.21,14.32-1.51,11.6-1.58,15.57.82,16.25.82,16.25-.82,24.14-.89,26.06S65.5,147.46,65.5,147.46Z"/></g><g class="cls-3"><path class="cls-4" d="M70.74,180.88h9.6l61.31-.12.32-.56.22-1.2s.11-6.58.26-8,.57-9.52.62-12.34.31-3.45.72-17.44a170.94,170.94,0,0,0-1.6-27.15s2.58-15.73,2.58-16-16.3-.36-25.9-.5-19.13.21-20.64,0-25.57-.48-26-.34-.28.69-.28,1.65.21,14.31.21,14.31-1.51,11.6-1.58,15.58.82,16.25.82,16.25-.82,24.13-.89,26S70.74,180.88,70.74,180.88Z"/><path class="cls-5" d="M71.56,179.86l8.78-.41,56.26-1,5.05,2.32-.91-1.59-.6-2.23s.92-4.52,1.08-6,.2-12.34.2-12.34l1.13-17.44L139.67,114s2.78-13.13,2.78-13.44S117.58,99,117.58,99L98.23,99l-21.82,1.36-2.79-.88.55,12.82-2,13.08.5,19.63-1.72,26Z"/><g class="cls-6"><g class="cls-7"><polygon class="cls-8" points="50.28 192.79 39.65 191.69 62.67 87.54 73.31 88.65 50.28 192.79"/><polygon class="cls-8" points="71.46 197.48 60.83 196.37 83.85 92.23 94.49 93.33 71.46 197.48"/><polygon class="cls-8" points="92.64 202.16 82 201.05 105.03 96.91 115.67 98.01 92.64 202.16"/><polygon class="cls-8" points="113.82 206.84 103.18 205.74 126.21 101.59 136.84 102.69 113.82 206.84"/><rect class="cls-8" x="125.22" y="103.23" width="5.12" height="106.66" transform="translate(36.81 -23.89) rotate(12.47)"/></g></g><path class="cls-9" d="M65.5,147.46h9.6l61.3-.12.33-.57.22-1.2s.11-6.58.26-8,.57-9.51.62-12.34.31-3.44.72-17.43A170.82,170.82,0,0,0,137,80.63s2.57-15.73,2.57-16-16.3-.36-25.9-.5-19.12.21-20.63,0-25.58-.48-26-.34-.27.68-.27,1.64.21,14.32.21,14.32-1.51,11.6-1.58,15.57.82,16.25.82,16.25-.82,24.14-.89,26.06S65.5,147.46,65.5,147.46Z"/></g><line class="cls-10" x1="125" y1="89.19" x2="13.38" y2="89.19"/><ellipse class="cls-11" cx="84.69" cy="68.11" rx="16.09" ry="20.46"/><ellipse class="cls-12" cx="79.98" cy="68.11" rx="11.38" ry="20.7"/><ellipse class="cls-13" cx="61.94" cy="68.11" rx="18.09" ry="20.09"/><ellipse class="cls-14" cx="65.86" cy="68.11" rx="11.31" ry="20.7"/><ellipse class="cls-13" cx="73.15" cy="68.11" rx="7.81" ry="20.7"/><path class="cls-10" d="M66.5,44.36a11.48,11.48,0,0,0,1.12-4,20.37,20.37,0,0,1,.8-4.1,5.62,5.62,0,0,1,3-3.25,3.27,3.27,0,0,1,2.55,1.9,6.12,6.12,0,0,0-2.26,4.89,8.25,8.25,0,0,0,3.76,6.76"/><path class="cls-10" d="M75.87,46.85a8.37,8.37,0,0,1-4.21-7.05,6.12,6.12,0,0,1,2.26-4.89,3.31,3.31,0,0,0-1.72-1.68"/><path class="cls-10" d="M76.37,46.93c-2.36-1.24-4.76-3.46-4.71-7.13a6.12,6.12,0,0,1,2.26-4.89,3.2,3.2,0,0,0-.77-1.07"/><path class="cls-10" d="M81.08,47.17c7.19,0,13.28,6,15.34,14.27a25.91,25.91,0,0,1,.42,10.31c-1.5,9.33-8,16.34-15.76,16.34"/><path class="cls-10" d="M87.07,74.68c-1.58,8-5.78,13.65-10.7,13.65A7,7,0,0,1,72.32,87"/><path class="cls-10" d="M72.71,48a4.76,4.76,0,0,1,3.66-1.09c5,0,9.32,6,10.81,14.22"/><path class="cls-10" d="M58.32,47.54c-10,0-18.08,9-18.08,20.09s8.1,20.09,18.08,20.09"/><path class="cls-10" d="M50.94,67.63c0,.81,0,1.61.07,2.4.65,10.3,5.43,18.3,11.23,18.3a7.1,7.1,0,0,0,4.32-1.56"/><path class="cls-10" d="M66.19,48.22a5.59,5.59,0,0,0-3.95-1.29c-4.68,0-8.7,5.21-10.41,12.64"/><path class="cls-10" d="M65.45,50c1.19-1.94,2.59-3.06,4.09-3.06,2.37,0,4.5,2.8,5.93,7.23"/><path class="cls-10" d="M62.19,74.68a54.15,54.15,0,0,1-.11-13.19c.16-1.43.39-2.79.66-4.06"/><path class="cls-10" d="M77.19,71.8c-.73,9.44-3.88,16.53-7.65,16.53-2.3,0-4.37-2.63-5.8-6.82"/></g></g></svg>