<svg xmlns="http://www.w3.org/2000/svg" viewBox="0 0 350.92 371.33"><defs><style>.cls-1{fill:#f9cdcd;}</style></defs><g id="Calque_2" data-name="Calque 2"><g id="Calque_1-2" data-name="Calque 1"><path class="cls-1" d="M294.48,81.9C278.86,76,264.12,77,249.61,80.41c.86-.92,1.82-1.72,2.63-2.71,16-19.54,21.54-48.75,13.56-72.59A4.62,4.62,0,0,0,265.18,4a4.07,4.07,0,0,0-4.6-4c-37.71,3-70.47,30.18-81.29,65.13C170.8,39.82,151.93,16.24,132,1.44a3.83,3.83,0,0,0-4.1-.51c-.14.06-.27.16-.41.23a4.72,4.72,0,0,0-.81.6,5.63,5.63,0,0,0-.59.44c-7.6,8.52-11.55,21.24-14.45,32a4.38,4.38,0,0,0,1,4.28,4.64,4.64,0,0,0,2.39,1.72,81.5,81.5,0,0,1,54.82,56.49c-30.09-5-55.73-24-88.29-20-31.41,3.91-55.86,25.59-68.91,53.79-33.66,72.73,5.15,160,52.62,217.25,24.86,30,48,26.73,82,15.43,24.68-8.2,41.43-3.47,65.43,2.56,13.31,3.34,28.26,6.82,42,4.64,33.06-5.21,54.39-45.4,66.29-72.86,17.52-40.44,31.05-82,29.76-126.52C349.77,134.1,330.75,95.67,294.48,81.9ZM257.05,10.24c6.08,21.31.86,48.1-14.85,64.15-14.5,14.81-36.83,19.8-57,22.71a4.72,4.72,0,0,0,.17-1.28C182.32,54,215.53,15.54,257.05,10.24Zm19.6,337.61c-32.42,30.28-68.52-1.91-104.8-.41-17.36.72-32.64,9.81-49.19,13.92-29.59,7.37-47-14-61.76-36.32C36,287.34,13,246.49,10.09,200.47S27.23,96.57,78.32,87.11c36.61-6.77,64.63,17.69,99.42,20.32a4.52,4.52,0,0,0,2.09.18c10-.13,19.77-2.4,29.46-5.35a121.3,121.3,0,0,0,13.59-4.46c20.62-7.11,41.07-14.52,62.51-8.67,58.25,15.91,61.71,88.36,50.68,136.75C326.62,267.38,308.37,318.23,276.65,347.85Z"/><path class="cls-1" d="M89.21,115.7c-32.91,13.56-49.55,55-44,88.49,1,6.18,10.42,3.56,9.4-2.59C50,174,64.23,136.46,91.8,125.1,97.53,122.75,95,113.31,89.21,115.7Z"/><path class="cls-1" d="M51.68,224.34c-6.27,0-6.28,9.75,0,9.75S58,224.34,51.68,224.34Z"/></g></g></svg>