<svg xmlns="http://www.w3.org/2000/svg" xmlns:xlink="http://www.w3.org/1999/xlink" viewBox="0 0 138 140"><defs><style>.cls-1{fill:none;}.cls-2{isolation:isolate;}.cls-3{clip-path:url(#clip-path);}.cls-4{fill:#e88a1f;}.cls-5{fill:#ffb300;}.cls-6{fill:#ececed;opacity:0.34;mix-blend-mode:lighten;}</style><clipPath id="clip-path"><path class="cls-1" d="M122.45,81.53C122.45,52,98.51-1.85,69-1.85S15.51,52,15.51,81.53a53.47,53.47,0,0,0,106.94,0Z"/></clipPath></defs><g class="cls-2"><g id="Calque_1" data-name="Calque 1"><g class="cls-3"><path class="cls-4" d="M88.31,28.46c-1-3.6-3.32-8.67-11.65-12.46-13.75-6.25-23,7-23,7-3.71-.39-5.71,1-6.52,4.36-.68,2.85.24,8.43.74,10.57L50.6,52.48l2.65-12.89c2.6-8.48,6.55-11.93,6.55-11.93l12.57-1L85.69,51.25l2.6-14.55a24.47,24.47,0,0,0,.36-5.6A13.88,13.88,0,0,0,88.31,28.46Z"/><path class="cls-5" d="M127.56,160.69c-4.29-17.81-12.75-53.25-15.92-69.12a12,12,0,0,0-8.26-9.1v0L80.32,72.58V66.27c1.26-1.5,2-3.29,3.1-5.6a17.71,17.71,0,0,0,1.19-3.2,2.55,2.55,0,0,0,1.11,0c3.9-1,5.08-9.25,2.48-10.53a3,3,0,0,0-1.68-.34l-5.35-14C81.5,30.73,55,28.1,55,28.1c-3.7-.4-5.43,18.64-5.43,18.64a2.71,2.71,0,0,0-2.18.21c-2.6,1.28-1.42,9.49,2.48,10.53a2.51,2.51,0,0,0,1.68-.21,20.27,20.27,0,0,0,1.31,3.56,34.05,34.05,0,0,0,3.27,5.75v5.71L32.32,82.44v0A12,12,0,0,0,24,91.57c-3.17,15.87-11.63,51.31-15.92,69.12a11.44,11.44,0,0,0,22.24,5.41L35.55,145l1.37,26.34H98.78l1.36-26.23,5.18,21a11.44,11.44,0,0,0,22.24-5.41Z"/><path class="cls-6" d="M18.81,141.58C14.47,123.56,3.42,105.24-.67,104l-13.6-31.84L-35.41,60.47l-1.28-7.89c6-2.87,6.51-15.56,8-17.69,0,0-1.77-6.57-3.89-8.59-7-6.69-19-4.61-19-4.61-2.42,1.83-3.44,4.58-4.13,6.69-.85,2.61-1.6,25.33.37,26.3l9.08,5.12-8.76,4.5A36.17,36.17,0,0,0-73.91,88.94h0c-4.1,1.24,0,18.1-.86,22.58-3.08,15.39-20.34,13.14-25.28,29.26-1.7,5.56.41,11.95,5.65,14.48a11.46,11.46,0,0,0,16.17-7.54L-73,126.6l1.36,26.34H-9.79l1.35-26.23,5.19,21a11.44,11.44,0,0,0,15.64,7.77C17.65,153.25,20.15,147.14,18.81,141.58Z"/><path class="cls-4" d="M84.1,25.12C83.65,25.27,69,21.2,69,21.2L56.08,25.12v0c-11.33,3.06-6.34,13.79-6.34,13.79,4.66-2.39,4.32-7.3,5.2-10.83,2.06,2.71,10,7.64,19.67,7.46,9.95-.2,11.07-4.07,11.07-4.07S84.56,25,84.1,25.12Z"/><path class="cls-6" d="M127.56,160.69C123.27,142.88,29,149.29,29,149.29L33.8,87.63,58.59,71.5c1.27-1.5,11.16,0,8.58.22-6,.46-7.17-3.77-8.33-5.94-.33-.63-5.4-9.47-5.55-17.22S49.14,33.6,55,28.1C52,28.06,53.64,23,53.64,23,41.23,21,49.52,46.74,49.52,46.74a2.71,2.71,0,0,0-2.18.21c-2.6,1.28-1.42,9.49,2.48,10.53a2.51,2.51,0,0,0,1.68-.21,20.27,20.27,0,0,0,1.31,3.56,34.05,34.05,0,0,0,3.27,5.75v5.71L32.32,82.44v0A12,12,0,0,0,24,91.57c-3.17,15.87-11.63,51.31-15.92,69.12a11.44,11.44,0,0,0,22.24,5.41L35.55,145l1.37,26.34H98.78l1.36-26.23,5.18,21a11.44,11.44,0,0,0,22.24-5.41Z"/><path class="cls-4" d="M56.08,66.58a15.09,15.09,0,0,0,11.09,5.14c7,0,13.15-5.45,13.15-5.45S76.9,75,67.17,75,56.08,66.58,56.08,66.58Z"/></g><g class="cls-3"><path class="cls-4" d="M88.31,28.46c-1-3.6-3.32-8.67-11.65-12.46-13.75-6.25-23,7-23,7-3.71-.39-5.71,1-6.52,4.36-.68,2.85.24,8.43.74,10.57L50.6,52.48l2.65-12.89c2.6-8.48,6.55-11.93,6.55-11.93l12.57-1L85.69,51.25l2.6-14.55a24.47,24.47,0,0,0,.36-5.6A13.88,13.88,0,0,0,88.31,28.46Z"/><path class="cls-5" d="M127.56,160.69c-4.29-17.81-12.75-53.25-15.92-69.12a12,12,0,0,0-8.26-9.1v0L80.32,72.58V66.27c1.26-1.5,2-3.29,3.1-5.6a17.71,17.71,0,0,0,1.19-3.2,2.55,2.55,0,0,0,1.11,0c3.9-1,5.08-9.25,2.48-10.53a3,3,0,0,0-1.68-.34l-5.35-14C81.5,30.73,55,28.1,55,28.1c-3.7-.4-5.43,18.64-5.43,18.64a2.71,2.71,0,0,0-2.18.21c-2.6,1.28-1.42,9.49,2.48,10.53a2.51,2.51,0,0,0,1.68-.21,20.27,20.27,0,0,0,1.31,3.56,34.05,34.05,0,0,0,3.27,5.75v5.71L32.32,82.44v0A12,12,0,0,0,24,91.57c-3.17,15.87-11.63,51.31-15.92,69.12a11.44,11.44,0,0,0,22.24,5.41L35.55,145l1.37,26.34H98.78l1.36-26.23,5.18,21a11.44,11.44,0,0,0,22.24-5.41Z"/><path class="cls-6" d="M18.81,141.58C14.47,123.56,3.42,105.24-.67,104l-13.6-31.84L-35.41,60.47l-1.28-7.89c6-2.87,6.51-15.56,8-17.69,0,0-1.77-6.57-3.89-8.59-7-6.69-19-4.61-19-4.61-2.42,1.83-3.44,4.58-4.13,6.69-.85,2.61-1.6,25.33.37,26.3l9.08,5.12-8.76,4.5A36.17,36.17,0,0,0-73.91,88.94h0c-4.1,1.24,0,18.1-.86,22.58-3.08,15.39-20.34,13.14-25.28,29.26-1.7,5.56.41,11.95,5.65,14.48a11.46,11.46,0,0,0,16.17-7.54L-73,126.6l1.36,26.34H-9.79l1.35-26.23,5.19,21a11.44,11.44,0,0,0,15.64,7.77C17.65,153.25,20.15,147.14,18.81,141.58Z"/><path class="cls-4" d="M84.1,25.12C83.65,25.27,69,21.2,69,21.2L56.08,25.12v0c-11.33,3.06-6.34,13.79-6.34,13.79,4.66-2.39,4.32-7.3,5.2-10.83,2.06,2.71,10,7.64,19.67,7.46,9.95-.2,11.07-4.07,11.07-4.07S84.56,25,84.1,25.12Z"/><path class="cls-6" d="M127.56,160.69C123.27,142.88,29,149.29,29,149.29L33.8,87.63,58.59,71.5c1.27-1.5,11.16,0,8.58.22-6,.46-7.17-3.77-8.33-5.94-.33-.63-5.4-9.47-5.55-17.22S49.14,33.6,55,28.1C52,28.06,53.64,23,53.64,23,41.23,21,49.52,46.74,49.52,46.74a2.71,2.71,0,0,0-2.18.21c-2.6,1.28-1.42,9.49,2.48,10.53a2.51,2.51,0,0,0,1.68-.21,20.27,20.27,0,0,0,1.31,3.56,34.05,34.05,0,0,0,3.27,5.75v5.71L32.32,82.44v0A12,12,0,0,0,24,91.57c-3.17,15.87-11.63,51.31-15.92,69.12a11.44,11.44,0,0,0,22.24,5.41L35.55,145l1.37,26.34H98.78l1.36-26.23,5.18,21a11.44,11.44,0,0,0,22.24-5.41Z"/><path class="cls-4" d="M56.08,66.58a15.09,15.09,0,0,0,11.09,5.14c7,0,13.15-5.45,13.15-5.45S76.9,75,67.17,75,56.08,66.58,56.08,66.58Z"/></g></g></g></svg>