<svg xmlns="http://www.w3.org/2000/svg" width="24" height="16" viewBox="0 0 24 16">
    <path fill="#CED4DA" d="M23 5.71c.05-1.431-.264-2.852-.91-4.13-.439-.524-1.047-.878-1.72-1C17.588.328 14.794.224 12 .27 9.217.222 6.433.322 3.66.57c-.548.1-1.055.357-1.46.74-.9.83-1 2.25-1.1 3.45-.145 2.158-.145 4.322 0 6.48.029.675.13 1.346.3 2 .12.505.365.972.71 1.36.407.403.926.675 1.49.78 2.156.266 4.328.376 6.5.33 3.5.05 6.57 0 10.2-.28.577-.098 1.111-.37 1.53-.78.28-.28.49-.623.61-1 .358-1.097.533-2.246.52-3.4.04-.56.04-3.94.04-4.54zM9.74 10.85V4.66l5.92 3.11c-1.66.92-3.85 1.96-5.92 3.08z"/>
</svg>
